HIERARCHY
ROOT Hips
{
    OFFSET 0.000000 0.000000 0.000000
    CHANNELS 6 Xposition Yposition Zposition Zrotation Xrotation Yrotation
    JOINT Spine
    {
        OFFSET -0.000000 14.517291 0.000000
        CHANNELS 3 Zrotation Xrotation Yrotation
        JOINT Spine1
        {
            OFFSET -0.000000 37.558300 0.000000
            CHANNELS 3 Zrotation Xrotation Yrotation
            JOINT Neck
            {
                OFFSET -0.000000 37.404057 3.400369
                CHANNELS 3 Zrotation Xrotation Yrotation
                JOINT Head
                {
                    OFFSET -0.000000 24.785618 -3.540803
                    CHANNELS 3 Zrotation Xrotation Yrotation
                    End Site
                    {
                        OFFSET -0.000000 35.408028 0.000000
                    }
                }
            }
            JOINT LeftShoulder
            {
                OFFSET 6.992933 33.973492 -0.192664
                CHANNELS 3 Zrotation Xrotation Yrotation
                JOINT LeftArm
                {
                    OFFSET 21.527611 0.000000 0.000000
                    CHANNELS 3 Zrotation Xrotation Yrotation
                    JOINT LeftForeArm
                    {
                        OFFSET 56.353916 0.000000 0.000000
                        CHANNELS 3 Zrotation Xrotation Yrotation
                        JOINT LeftHand
                        {
                            OFFSET 47.774071 0.000000 0.000000
                            CHANNELS 3 Zrotation Xrotation Yrotation
                            End Site
                            {
                                OFFSET 26.556021 0.000000 0.000000
                            }
                        }
                    }
                }
            }
            JOINT RightShoulder
            {
                OFFSET -7.065357 33.973492 -0.192664
                CHANNELS 3 Zrotation Xrotation Yrotation
                JOINT RightArm
                {
                    OFFSET -21.527611 0.000000 0.000000
                    CHANNELS 3 Zrotation Xrotation Yrotation
                    JOINT RightForeArm
                    {
                        OFFSET -56.353916 0.000000 0.000000
                        CHANNELS 3 Zrotation Xrotation Yrotation
                        JOINT RightHand
                        {
                            OFFSET -47.774071 0.000000 0.000000
                            CHANNELS 3 Zrotation Xrotation Yrotation
                            End Site
                            {
                                OFFSET -26.556021 0.000000 0.000000
                            }
                        }
                    }
                }
            }
        }
    }
    JOINT LeftUpLeg
    {
        OFFSET 17.704014 0.000000 0.000000
        CHANNELS 3 Zrotation Xrotation Yrotation
        JOINT LeftLeg
        {
            OFFSET -0.000000 -81.181816 0.000000
            CHANNELS 3 Zrotation Xrotation Yrotation
            JOINT LeftFoot
            {
                OFFSET -0.000000 -62.821102 0.000000
                CHANNELS 3 Zrotation Xrotation Yrotation
                JOINT LeftToeBase
                {
                    OFFSET -0.000000 -11.507608 26.556021
                    CHANNELS 3 Zrotation Xrotation Yrotation
                    End Site
                    {
                        OFFSET -0.000000 0.000000 7.081605
                    }
                }
            }
        }
    }
    JOINT RightUpLeg
    {
        OFFSET -17.704014 0.000000 0.000000
        CHANNELS 3 Zrotation Xrotation Yrotation
        JOINT RightLeg
        {
            OFFSET -0.000000 -81.181816 0.000000
            CHANNELS 3 Zrotation Xrotation Yrotation
            JOINT RightFoot
            {
                OFFSET -0.000000 -62.821102 0.000000
                CHANNELS 3 Zrotation Xrotation Yrotation
                JOINT RightToeBase
                {
                    OFFSET -0.000000 -11.507608 26.556021
                    CHANNELS 3 Zrotation Xrotation Yrotation
                    End Site
                    {
                        OFFSET -0.000000 0.000000 7.081605
                    }
                }
            }
        }
    }
}
MOTION
Frames:    5
Frame Time:    0.008333
21.303549    151.279068    -36.358158    1.438350    -2.520272    -57.619503    3.752158    -0.950868    0.087304    1.660348    1.611959    -0.003518    16.042517    -4.142539    14.001368    -12.917341    16.617474    11.665737    11.152642    0.225767    -21.215115    -9.775450    -17.721130    -41.798836    12.362882    -39.898006    -13.164913    -29.003168    -27.517815    -48.794098    -8.958147    3.390012    -1.156826    34.741673    8.633862    80.662727    10.104177    -3.126005    105.605202    5.654862    -15.319272    20.569164    22.625187    -20.433638    0.254939    -14.209693    26.366262    -9.626878    -11.316796    -6.267874    38.689747    0.000000    0.000000    0.000000    -20.034761    -9.459887    -1.543255    5.086132    39.273148    -0.167434    6.180162    -26.764669    -9.875616    0.000000    0.000000    0.000000    
21.438988    151.452042    -36.048172    1.455375    -2.321672    -57.742065    3.660715    -0.939039    0.173864    1.725879    1.580197    0.023199    16.123302    -4.105335    14.017093    -12.933791    16.595234    11.669673    11.210002    0.182114    -21.205601    -9.724595    -17.802227    -41.769218    12.277790    -39.826214    -13.280651    -29.084721    -27.366430    -48.902405    -8.908783    3.401808    -1.124554    34.724030    8.584728    80.666054    10.130991    -3.095157    105.610641    5.599471    -15.335943    20.557888    22.687195    -20.474068    0.242378    -14.249855    26.351952    -9.563995    -11.163635    -6.247091    38.768921    0.000000    0.000000    0.000000    -19.974615    -9.342211    -1.565421    5.014957    38.661629    -0.059715    6.282825    -26.367426    -9.874068    0.000000    0.000000    0.000000    
21.579132    151.622208    -35.750435    1.464847    -2.125488    -57.860527    3.580237    -0.898912    0.257479    1.786737    1.527202    0.052309    16.192324    -4.101424    14.039461    -12.929020    16.616177    11.683008    11.278766    0.129317    -21.232653    -9.665857    -17.865200    -41.685631    12.205153    -39.819000    -13.408434    -29.168488    -27.297005    -48.972103    -8.884446    3.349391    -1.119046    34.673599    8.662500    80.668533    10.103952    -3.202096    105.642174    5.681055    -15.395091    20.598692    22.758085    -20.517605    0.265723    -14.268935    26.361483    -9.525014    -11.121651    -6.350598    38.727398    0.000000    0.000000    0.000000    -19.893686    -9.218734    -1.577822    4.915350    38.037701    -0.047308    6.429083    -25.955648    -9.776809    0.000000    0.000000    0.000000    
21.719606    151.786346    -35.463619    1.469828    -1.930979    -57.993034    3.486058    -0.838742    0.344106    1.888708    1.449930    0.081897    16.249332    -4.086955    14.078330    -12.933448    16.636440    11.717442    11.315532    0.066883    -21.198484    -9.621093    -17.886242    -41.666954    12.154625    -39.796345    -13.492331    -29.201687    -27.237108    -49.030041    -8.894256    3.358542    -1.097451    34.714603    8.622204    80.683151    10.138767    -3.139061    105.634262    5.664992    -15.379065    20.623470    22.830534    -20.555470    0.335189    -14.268024    26.385641    -9.526877    -11.014784    -6.379275    38.778400    0.000000    0.000000    0.000000    -19.815659    -9.099529    -1.578088    4.847533    37.416763    -0.042567    6.545967    -25.550428    -9.681293    0.000000    0.000000    0.000000    
21.847095    151.950531    -35.161289    1.470167    -1.748235    -58.114002    3.438635    -0.821804    0.407919    1.909599    1.443046    0.103155    16.261179    -4.123919    14.105864    -12.838038    16.688332    11.744184    11.406931    -0.086131    -21.153646    -9.638157    -17.851812    -41.617184    12.101355    -39.741581    -13.581326    -29.248503    -27.140522    -49.064331    -8.873110    3.311671    -1.069627    34.703384    8.658386    80.691643    10.121655    -3.170534    105.639618    5.722787    -15.375852    20.671656    22.890039    -20.580379    0.364451    -14.280760    26.395144    -9.497501    -10.848546    -6.344728    38.761036    0.000000    0.000000    0.000000    -19.742954    -8.960780    -1.571384    4.778265    36.800831    -0.057549    6.676374    -25.138288    -9.594502    0.000000    0.000000    0.000000    
